<svg xmlns="http://www.w3.org/2000/svg" viewBox="0 0 512 512"><!--! Font Awesome Free 6.7.2 by @fontawesome - https://fontawesome.com License - https://fontawesome.com/license/free (Icons: CC BY 4.0, Fonts: SIL OFL 1.1, Code: MIT License) Copyright 2024 Fonticons, Inc. --><path d="M156.6 384.9L125.7 353.1C117.2 345.5 114.2 333.1 117.1 321.8L130.8 272.5C143.1 227.3 171.5 187.4 209.9 160.8L321.1 84.3C377.8 48.9 442.7 33.6 499.6 49.5C517.6 54.8 532.2 69.4 537.5 87.4C553.4 144.3 538.1 209.2 502.7 265.9L426.2 377.1C399.6 415.5 359.7 443.9 314.5 456.2L265.2 469.9C253.9 472.8 241.5 469.8 233.9 461.3L202.1 430.4C193.1 421.4 187.7 409.5 186.7 396.9L156.6 384.9zM288 160C252.7 160 224 188.7 224 224s28.7 64 64 64s64-28.7 64-64s-28.7-64-64-64zM153.4 414.3L96 480l-64 0c-17.7 0-32-14.3-32-32l0-64 65.7-57.4 87.7 87.7z"/></svg>
